# This file uses centimeters as units for non-parametric coordinates.

mtllib LITEN_FUCKING_Traingel.mtl
g default
v -0.500000 -0.500000 0.500000
v 0.500000 -0.500000 0.500000
v -0.500000 0.500000 0.500000
v 0.500000 0.500000 0.500000
v -0.500000 0.500000 -0.500000
v 0.500000 0.500000 -0.500000
v -0.500000 -0.500000 -0.500000
v 0.500000 -0.500000 -0.500000
vt 0.254438 0.423974
vt 0.497152 0.423974
vt 0.254438 0.666689
vt 0.497153 0.666688
vt 0.982581 0.666688
vt 0.497153 0.909402
vt 0.254438 0.181260
vt 0.739866 0.423974
vt 0.739867 0.666688
vt 0.011724 0.423974
vt 0.011724 0.666689
vt 0.497152 0.181260
vt 0.982580 0.423974
vt 0.254439 0.909402
vn 0.000000 0.000000 1.000000
vn 0.000000 0.000000 1.000000
vn 0.000000 0.000000 1.000000
vn 0.000000 0.000000 1.000000
vn 0.000000 1.000000 0.000000
vn 0.000000 1.000000 0.000000
vn 0.000000 1.000000 0.000000
vn 0.000000 1.000000 0.000000
vn 0.000000 0.000000 -1.000000
vn 0.000000 0.000000 -1.000000
vn 0.000000 0.000000 -1.000000
vn 0.000000 0.000000 -1.000000
vn 0.000000 -1.000000 0.000000
vn 0.000000 -1.000000 0.000000
vn 0.000000 -1.000000 0.000000
vn 0.000000 -1.000000 0.000000
vn 1.000000 0.000000 0.000000
vn 1.000000 0.000000 0.000000
vn 1.000000 0.000000 0.000000
vn 1.000000 0.000000 0.000000
vn -1.000000 0.000000 0.000000
vn -1.000000 0.000000 0.000000
vn -1.000000 0.000000 0.000000
vn -1.000000 0.000000 0.000000
s 1
g pCube1
usemtl VRayMeshMaterial1SG
f 1/1/1 2/2/2 3/3/3
f 3/3/3 2/2/2 4/4/4
s 2
f 3/3/5 4/4/6 5/14/7
f 5/14/7 4/4/6 6/6/8
s 3
f 5/5/9 6/9/10 7/13/11
f 7/13/11 6/9/10 8/8/12
s 4
f 7/7/13 8/12/14 1/1/15
f 1/1/15 8/12/14 2/2/16
s 5
f 2/2/17 8/8/18 4/4/19
f 4/4/19 8/8/18 6/9/20
s 6
f 7/10/21 1/1/22 5/11/23
f 5/11/23 1/1/22 3/3/24
g default
v -0.500000 -0.500000 0.500000
v 0.500000 -0.500000 0.500000
v -0.500000 0.500000 0.500000
v 0.500000 0.500000 0.500000
v -0.500000 0.500000 -0.500000
v 0.500000 0.500000 -0.500000
v -0.500000 -0.500000 -0.500000
v 0.500000 -0.500000 -0.500000
vt 0.254438 0.423974
vt 0.497152 0.423974
vt 0.254438 0.666689
vt 0.497153 0.666688
vt 0.982581 0.666688
vt 0.497153 0.909402
vt 0.254438 0.181260
vt 0.739866 0.423974
vt 0.739867 0.666688
vt 0.011724 0.423974
vt 0.011724 0.666689
vt 0.497152 0.181260
vt 0.982580 0.423974
vt 0.254439 0.909402
vn 0.000000 0.000000 1.000000
vn 0.000000 0.000000 1.000000
vn 0.000000 0.000000 1.000000
vn 0.000000 0.000000 1.000000
vn 0.000000 1.000000 0.000000
vn 0.000000 1.000000 0.000000
vn 0.000000 1.000000 0.000000
vn 0.000000 1.000000 0.000000
vn 0.000000 0.000000 -1.000000
vn 0.000000 0.000000 -1.000000
vn 0.000000 0.000000 -1.000000
vn 0.000000 0.000000 -1.000000
vn 0.000000 -1.000000 0.000000
vn 0.000000 -1.000000 0.000000
vn 0.000000 -1.000000 0.000000
vn 0.000000 -1.000000 0.000000
vn 1.000000 0.000000 0.000000
vn 1.000000 0.000000 0.000000
vn 1.000000 0.000000 0.000000
vn 1.000000 0.000000 0.000000
vn -1.000000 0.000000 0.000000
vn -1.000000 0.000000 0.000000
vn -1.000000 0.000000 0.000000
vn -1.000000 0.000000 0.000000
s 1
g pCube1
f 9/15/25 10/16/26 11/17/27
f 11/17/27 10/16/26 12/18/28
s 2
f 11/17/29 12/18/30 13/28/31
f 13/28/31 12/18/30 14/20/32
s 3
f 13/19/33 14/23/34 15/27/35
f 15/27/35 14/23/34 16/22/36
s 4
f 15/21/37 16/26/38 9/15/39
f 9/15/39 16/26/38 10/16/40
s 5
f 10/16/41 16/22/42 12/18/43
f 12/18/43 16/22/42 14/23/44
s 6
f 15/24/45 9/15/46 13/25/47
f 13/25/47 9/15/46 11/17/48
