# This file uses meters as units for non-parametric coordinates.

mtllib Cube.mtl
g default
v -30.002001 0.000095 30.002001
v -30.002001 19.998095 50.000000
v -50.000000 19.998095 30.002001
v 50.000000 19.998095 30.002001
v 30.002001 19.998095 50.000000
v 30.002001 0.000095 30.002001
v -50.000000 80.002090 30.002001
v -30.002001 80.002090 50.000000
v -30.002001 100.000092 30.002001
v 30.002001 100.000092 30.002001
v 30.002001 80.002090 50.000000
v 50.000000 80.002090 30.002001
v -50.000000 80.002090 -30.002001
v -30.002001 100.000092 -30.002001
v -30.002001 80.002090 -50.000000
v 30.002001 80.002090 -50.000000
v 30.002001 100.000092 -30.002001
v 50.000000 80.002090 -30.002001
v -50.000000 19.998095 -30.002001
v -30.002001 19.998095 -50.000000
v -30.002001 0.000095 -30.002001
v 30.002001 0.000095 -30.002001
v 30.002001 19.998095 -50.000000
v 50.000000 19.998095 -30.002001
vt 0.601347 0.623029
vt 0.825692 0.623023
vt 0.825698 0.847368
vt 0.601353 0.847375
vt 0.548474 0.531458
vt 0.825689 0.517283
vt 0.931438 0.847365
vt 0.931432 0.623020
vt 0.601356 0.953114
vt 0.878571 0.938940
vt 0.495607 0.623032
vt 0.495613 0.847378
vt 0.356167 0.115752
vt 0.356132 0.340098
vt 0.131786 0.340062
vt 0.131822 0.115717
vt 0.461871 0.340114
vt 0.447749 0.062897
vt 0.356115 0.445837
vt 0.131770 0.445802
vt 0.040205 0.392918
vt 0.026082 0.115700
vt 0.131838 0.009977
vt 0.356184 0.010013
vt 0.742710 0.124087
vt 0.977777 0.124057
vt 0.977807 0.359123
vt 0.742740 0.359153
vt 0.742697 0.013294
vt 0.977763 0.013264
vt 0.742754 0.469946
vt 0.977821 0.469916
vt 0.485170 0.124087
vt 0.720236 0.124057
vt 0.720266 0.359123
vt 0.485199 0.359153
vt 0.485155 0.013294
vt 0.720222 0.013264
vt 0.485213 0.469946
vt 0.720280 0.469916
vt 0.201216 0.715739
vt 0.201216 0.461947
vt 0.455008 0.461947
vt 0.455008 0.715739
vt 0.026586 0.988990
vt 0.026586 0.735198
vt 0.280378 0.735198
vt 0.280378 0.988990
vt 0.825701 0.953108
vt 0.548486 0.938949
vt 0.040257 0.062833
vt 0.026047 0.340046
vt 0.878559 0.531448
vt 0.601344 0.517290
vt 0.461907 0.115769
vt 0.447697 0.392982
vn -0.707107 -0.707107 0.000000
vn -0.707107 -0.707107 0.000000
vn -0.707107 -0.707107 0.000000
vn -0.707107 -0.707107 0.000000
vn 0.000000 -0.707107 0.707107
vn 0.000000 -0.707107 0.707107
vn 0.000000 -0.707107 0.707107
vn 0.000000 -0.707107 0.707107
vn -0.707107 0.000000 0.707107
vn -0.707107 0.000000 0.707107
vn -0.707107 0.000000 0.707107
vn -0.707107 0.000000 0.707107
vn 0.707107 -0.707107 0.000000
vn 0.707107 -0.707107 0.000000
vn 0.707107 -0.707107 0.000000
vn 0.707107 -0.707107 0.000000
vn 0.707107 0.000000 0.707107
vn 0.707107 0.000000 0.707107
vn 0.707107 0.000000 0.707107
vn 0.707107 0.000000 0.707107
vn -0.707107 0.707107 0.000000
vn -0.707107 0.707107 0.000000
vn -0.707107 0.707107 0.000000
vn -0.707107 0.707107 0.000000
vn 0.000000 0.707107 0.707107
vn 0.000000 0.707107 0.707107
vn 0.000000 0.707107 0.707107
vn 0.000000 0.707107 0.707107
vn 0.707107 0.707107 0.000000
vn 0.707107 0.707107 0.000000
vn 0.707107 0.707107 0.000000
vn 0.707107 0.707107 0.000000
vn -0.707107 0.000000 -0.707107
vn -0.707107 0.000000 -0.707107
vn -0.707107 0.000000 -0.707107
vn -0.707107 0.000000 -0.707107
vn 0.000000 0.707107 -0.707107
vn 0.000000 0.707107 -0.707107
vn 0.000000 0.707107 -0.707107
vn 0.000000 0.707107 -0.707107
vn 0.707107 0.000000 -0.707107
vn 0.707107 0.000000 -0.707107
vn 0.707107 0.000000 -0.707107
vn 0.707107 0.000000 -0.707107
vn 0.000000 -0.707107 -0.707107
vn 0.000000 -0.707107 -0.707107
vn 0.000000 -0.707107 -0.707107
vn 0.000000 -0.707107 -0.707107
vn 0.000000 0.000000 1.000000
vn 0.000000 0.000000 1.000000
vn 0.000000 0.000000 1.000000
vn 0.000000 0.000000 1.000000
vn 0.000000 1.000000 0.000000
vn 0.000000 1.000000 0.000000
vn 0.000000 1.000000 0.000000
vn 0.000000 1.000000 0.000000
vn 0.000000 0.000000 -1.000000
vn 0.000000 0.000000 -1.000000
vn 0.000000 0.000000 -1.000000
vn 0.000000 0.000000 -1.000000
vn 0.000000 -1.000000 0.000000
vn 0.000000 -1.000000 0.000000
vn 0.000000 -1.000000 0.000000
vn 0.000000 -1.000000 0.000000
vn 1.000000 0.000000 0.000000
vn 1.000000 0.000000 0.000000
vn 1.000000 0.000000 0.000000
vn 1.000000 0.000000 0.000000
vn -1.000000 0.000000 0.000000
vn -1.000000 0.000000 0.000000
vn -1.000000 0.000000 0.000000
vn -1.000000 0.000000 0.000000
vn -0.577350 -0.577350 0.577350
vn -0.577350 -0.577350 0.577350
vn -0.577350 -0.577350 0.577350
vn 0.577350 -0.577350 0.577350
vn 0.577350 -0.577350 0.577350
vn 0.577350 -0.577350 0.577350
vn -0.577350 0.577350 0.577350
vn -0.577350 0.577350 0.577350
vn -0.577350 0.577350 0.577350
vn 0.577350 0.577350 0.577350
vn 0.577350 0.577350 0.577350
vn 0.577350 0.577350 0.577350
vn -0.577350 0.577350 -0.577350
vn -0.577350 0.577350 -0.577350
vn -0.577350 0.577350 -0.577350
vn 0.577350 0.577350 -0.577350
vn 0.577350 0.577350 -0.577350
vn 0.577350 0.577350 -0.577350
vn -0.577350 -0.577350 -0.577350
vn -0.577350 -0.577350 -0.577350
vn -0.577350 -0.577350 -0.577350
vn 0.577350 -0.577350 -0.577350
vn 0.577350 -0.577350 -0.577350
vn 0.577350 -0.577350 -0.577350
s 1
g Cube
usemtl initialShadingGroup
f 1/17/1 3/14/2 21/55/3
f 21/55/3 3/14/2 19/13/4
s 2
f 2/39/5 1/36/6 5/40/7
f 5/40/7 1/36/6 6/35/8
s 3
f 3/14/9 2/19/10 7/15/11
f 7/15/11 2/19/10 8/20/12
s 4
f 4/1/13 6/54/14 24/2/15
f 24/2/15 6/54/14 22/6/16
s 5
f 5/11/17 4/1/18 11/12/19
f 11/12/19 4/1/18 12/4/20
s 6
f 7/15/21 9/52/22 13/16/23
f 13/16/23 9/52/22 14/22/24
s 7
f 9/25/25 8/29/26 10/26/27
f 10/26/27 8/29/26 11/30/28
s 8
f 10/9/29 12/4/30 17/49/31
f 17/49/31 12/4/30 18/3/32
s 9
f 13/16/33 15/23/34 19/13/35
f 19/13/35 15/23/34 20/24/36
s 10
f 15/31/37 14/28/38 16/32/39
f 16/32/39 14/28/38 17/27/40
s 11
f 16/7/41 18/3/42 23/8/43
f 23/8/43 18/3/42 24/2/44
s 12
f 21/33/45 20/37/46 22/34/47
f 22/34/47 20/37/46 23/38/48
s 13
f 2/41/49 5/42/50 8/44/51
f 8/44/51 5/42/50 11/43/52
s 14
f 9/25/53 10/26/54 14/28/55
f 14/28/55 10/26/54 17/27/56
s 15
f 15/45/57 16/46/58 20/48/59
f 20/48/59 16/46/58 23/47/60
s 16
f 21/33/61 22/34/62 1/36/63
f 1/36/63 22/34/62 6/35/64
s 17
f 4/1/65 24/2/66 12/4/67
f 12/4/67 24/2/66 18/3/68
s 18
f 19/13/69 3/14/70 13/16/71
f 13/16/71 3/14/70 7/15/72
s off
f 1/56/73 2/19/74 3/14/75
f 4/1/76 5/11/77 6/5/78
f 7/15/79 8/20/80 9/21/81
f 10/50/82 11/12/83 12/4/84
f 13/16/85 14/51/86 15/23/87
f 16/7/88 17/10/89 18/3/90
f 19/13/91 20/24/92 21/18/93
f 22/53/94 23/8/95 24/2/96
